<svg xmlns="http://www.w3.org/2000/svg" viewBox="0 0 512 512" width="512" height="512">
  <defs>
    <radialGradient id="puBg" cx=".49" cy=".33" r=".92">
      <stop offset="0" stop-color="#15182E"/><stop offset=".62" stop-color="#0A0A12"/><stop offset="1" stop-color="#060609"/>
    </radialGradient>
    <linearGradient id="puStroke" x1="0" y1="0" x2="1" y2="0">
      <stop offset="0" stop-color="#34E2B0"/><stop offset=".5" stop-color="#22CBC6"/><stop offset="1" stop-color="#9B8CFF"/>
    </linearGradient>
    <radialGradient id="puNode" cx=".5" cy=".5" r=".5">
      <stop offset="0" stop-color="#ECFFF8"/><stop offset=".42" stop-color="#5CF0C8"/><stop offset="1" stop-color="#5CF0C8" stop-opacity="0"/>
    </radialGradient>
    <filter id="puGlow" x="-40%" y="-40%" width="180%" height="180%"><feGaussianBlur stdDeviation="16"/></filter>
    <filter id="puNodeGlow" x="-150%" y="-150%" width="400%" height="400%"><feGaussianBlur stdDeviation="17"/></filter>
  </defs>
  <rect width="512" height="512" fill="url(#puBg)"/>
  <path d="M96 256 H196 L216 282 L250 128 L288 384 L318 236 L342 256 H416" fill="none" stroke="url(#puStroke)" stroke-width="30" stroke-linecap="round" stroke-linejoin="round" filter="url(#puGlow)" opacity=".6"/>
  <path d="M96 256 H196 L216 282 L250 128 L288 384 L318 236 L342 256 H416" fill="none" stroke="url(#puStroke)" stroke-width="26" stroke-linecap="round" stroke-linejoin="round"/>
  <path d="M96 256 H196 L216 282 L250 128 L288 384 L318 236 L342 256 H416" fill="none" stroke="#EAFFF7" stroke-width="7" stroke-linecap="round" stroke-linejoin="round" opacity=".26"/>
  <circle cx="250" cy="128" r="44" fill="url(#puNode)" filter="url(#puNodeGlow)"/>
  <circle cx="250" cy="128" r="12" fill="#F4FFFC"/>
</svg>
